<svg width="28" height="28" viewBox="0 0 28 28" fill="none" xmlns="http://www.w3.org/2000/svg">
<circle cx="14" cy="14" r="14" fill="white"/>
<path d="M10.6459 10.646C10.6924 10.5994 10.7475 10.5625 10.8083 10.5373C10.869 10.5121 10.9341 10.4991 10.9999 10.4991C11.0657 10.4991 11.1308 10.5121 11.1916 10.5373C11.2523 10.5625 11.3075 10.5994 11.3539 10.646L13.9999 13.293L16.6459 10.646C16.6924 10.5995 16.7476 10.5626 16.8083 10.5375C16.8691 10.5123 16.9342 10.4994 16.9999 10.4994C17.0657 10.4994 17.1308 10.5123 17.1915 10.5375C17.2522 10.5626 17.3074 10.5995 17.3539 10.646C17.4004 10.6925 17.4373 10.7477 17.4624 10.8084C17.4876 10.8691 17.5005 10.9342 17.5005 11C17.5005 11.0657 17.4876 11.1308 17.4624 11.1916C17.4373 11.2523 17.4004 11.3075 17.3539 11.354L14.7069 14L17.3539 16.646C17.4004 16.6925 17.4373 16.7477 17.4624 16.8084C17.4876 16.8691 17.5005 16.9342 17.5005 17C17.5005 17.0657 17.4876 17.1308 17.4624 17.1916C17.4373 17.2523 17.4004 17.3075 17.3539 17.354C17.3074 17.4005 17.2522 17.4374 17.1915 17.4625C17.1308 17.4877 17.0657 17.5006 16.9999 17.5006C16.9342 17.5006 16.8691 17.4877 16.8083 17.4625C16.7476 17.4374 16.6924 17.4005 16.6459 17.354L13.9999 14.707L11.3539 17.354C11.3074 17.4005 11.2522 17.4374 11.1915 17.4625C11.1308 17.4877 11.0657 17.5006 10.9999 17.5006C10.9342 17.5006 10.8691 17.4877 10.8083 17.4625C10.7476 17.4374 10.6924 17.4005 10.6459 17.354C10.5994 17.3075 10.5626 17.2523 10.5374 17.1916C10.5122 17.1308 10.4993 17.0657 10.4993 17C10.4993 16.9342 10.5122 16.8691 10.5374 16.8084C10.5626 16.7477 10.5994 16.6925 10.6459 16.646L13.2929 14L10.6459 11.354C10.5994 11.3075 10.5624 11.2524 10.5372 11.1916C10.512 11.1309 10.499 11.0658 10.499 11C10.499 10.9342 10.512 10.8691 10.5372 10.8084C10.5624 10.7476 10.5994 10.6924 10.6459 10.646Z" fill="#EC1F46"/>
</svg>
