<svg fill="none" height="28" viewBox="0 0 28 28" width="28" xmlns="http://www.w3.org/2000/svg">
  <circle cx="14" cy="14" fill="white" r="14"/>
  <path
    d="M19.231 11.0045L17.1113 8.8739C16.9712 8.73453 16.7817 8.6563 16.5841 8.6563C16.3865 8.6563 16.1969 8.73453 16.0569 8.8739L8.54215 16.3778L7.85604 19.3389C7.83237 19.4471 7.83318 19.5593 7.85841 19.6672C7.88364 19.7751 7.93266 19.876 8.00188 19.9625C8.07109 20.049 8.15877 20.119 8.25849 20.1673C8.35821 20.2156 8.46746 20.241 8.57826 20.2417C8.62989 20.2469 8.68191 20.2469 8.73354 20.2417L11.7271 19.5556L19.231 12.0589C19.3704 11.9188 19.4486 11.7293 19.4486 11.5317C19.4486 11.3341 19.3704 11.1445 19.231 11.0045ZM11.366 18.9056L8.5602 19.4942L9.19937 16.7425L14.8219 11.1417L16.9885 13.3083L11.366 18.9056ZM17.4724 12.7847L15.3058 10.6181L16.5624 9.36862L18.693 11.5353L17.4724 12.7847Z"
    fill="#EC1F46"/>
</svg>
