<svg width="19" height="19" viewBox="0 0 19 19" fill="none" xmlns="http://www.w3.org/2000/svg">
<path d="M15.8822 14.8022C16.7349 13.7762 17.328 12.56 17.6112 11.2564C17.8945 9.9528 17.8596 8.60015 17.5095 7.31287C17.1594 6.02559 16.5044 4.84157 15.6 3.86096C14.6955 2.88035 13.5682 2.13201 12.3133 1.67923C11.0585 1.22646 9.71307 1.08257 8.39085 1.25974C7.06864 1.43692 5.80855 1.92994 4.71718 2.69711C3.6258 3.46428 2.73526 4.48301 2.12087 5.66715C1.50648 6.85128 1.18633 8.16597 1.1875 9.5C1.18795 11.4393 1.87135 13.3165 3.11778 14.8022L3.10591 14.8123C3.14747 14.8622 3.19497 14.9049 3.23772 14.9542C3.29116 15.0153 3.34875 15.0729 3.40397 15.1323C3.57022 15.3128 3.74122 15.4862 3.92053 15.6489C3.97516 15.6987 4.03157 15.7451 4.08678 15.7926C4.27678 15.9564 4.47213 16.112 4.6746 16.2569C4.70072 16.2747 4.72447 16.2978 4.7506 16.3162V16.3091C6.14122 17.2877 7.80016 17.8129 9.5006 17.8129C11.201 17.8129 12.86 17.2877 14.2506 16.3091V16.3162C14.2767 16.2978 14.2999 16.2747 14.3266 16.2569C14.5285 16.1114 14.7244 15.9564 14.9144 15.7926C14.9696 15.7451 15.026 15.6982 15.0807 15.6489C15.26 15.4856 15.431 15.3128 15.5972 15.1323C15.6524 15.0729 15.7094 15.0153 15.7635 14.9542C15.8056 14.9049 15.8537 14.8622 15.8953 14.8117L15.8822 14.8022ZM9.5 4.75C10.0285 4.75 10.545 4.9067 10.9844 5.20029C11.4238 5.49388 11.7663 5.91117 11.9685 6.39939C12.1707 6.88761 12.2236 7.42484 12.1205 7.94313C12.0174 8.46142 11.763 8.9375 11.3893 9.31117C11.0156 9.68484 10.5396 9.93931 10.0213 10.0424C9.50297 10.1455 8.96574 10.0926 8.47752 9.89036C7.9893 9.68813 7.57201 9.34567 7.27842 8.90629C6.98483 8.4669 6.82813 7.95032 6.82813 7.42187C6.82813 6.71325 7.10963 6.03365 7.6107 5.53257C8.11178 5.0315 8.79138 4.75 9.5 4.75V4.75ZM4.75416 14.8022C4.76446 14.0226 5.08128 13.2784 5.63609 12.7306C6.1909 12.1827 6.93907 11.8754 7.71875 11.875H11.2813C12.0609 11.8754 12.8091 12.1827 13.3639 12.7306C13.9187 13.2784 14.2355 14.0226 14.2458 14.8022C12.9437 15.9756 11.2529 16.625 9.5 16.625C7.7471 16.625 6.05635 15.9756 4.75416 14.8022V14.8022Z" fill="#EC1F46"/>
</svg>
