<?xml version="1.0" encoding="UTF-8"?>
<svg height="1024px" version="1.1" viewBox="0 0 1024 1024" width="1024px" xmlns="http://www.w3.org/2000/svg"
     xmlns:xlink="http://www.w3.org/1999/xlink">
  <title>Artboard</title>
  <defs>
    <rect height="832.187317" id="path-1" rx="190" width="833" x="0" y="0"></rect>
    <rect height="832.187317" id="path-3" rx="190" width="833" x="0" y="0"></rect>
    <linearGradient id="linearGradient-5" x1="61.1741442%" x2="132.361685%" y1="23.0371294%" y2="289.58%">
      <stop offset="0%" stop-color="#FFFFFF" stop-opacity="0.5"></stop>
      <stop offset="100%" stop-color="#000000" stop-opacity="0.5"></stop>
    </linearGradient>
    <path
      d="M53.6044957,4.26755697 L176.105016,122.792716 C182.509563,130.391276 180.491255,140.600905 173.864863,146.948308 C167.23847,153.295712 157.315738,153.62908 150.543769,148.131617 C108.983759,108.159961 67.6037419,67.8627026 26.4037167,27.2398436 C25.0920765,17.2685491 26.9764895,10.3808723 32.0569556,6.57681313 C37.1374217,2.77275401 44.3199351,2.00300195 53.6044957,4.26755697 Z"
      id="path-6"></path>
    <linearGradient id="linearGradient-7" x1="66.0380132%" x2="100%" y1="20.811283%" y2="285.36612%">
      <stop offset="0%" stop-color="#FFFFFF" stop-opacity="0.5"></stop>
      <stop offset="100%" stop-color="#000000" stop-opacity="0.5"></stop>
    </linearGradient>
    <path
      d="M309.604496,1.26755697 L432.105016,119.792716 C438.509563,127.391276 436.491255,137.600905 429.864863,143.948308 C423.23847,150.295712 413.315738,150.62908 406.543769,145.131617 C390.099802,129.316111 348.719784,89.0188528 282.403717,24.2398436 C281.092076,14.2685491 282.976489,7.38087226 288.056956,3.57681313 C293.137422,-0.227245995 300.319935,-0.99699805 309.604496,1.26755697 Z"
      id="path-8"></path>
    <linearGradient id="linearGradient-9" x1="46.5565161%" x2="146.517918%" y1="27.5465513%" y2="145.965144%">
      <stop offset="0%" stop-color="#FFFFFF" stop-opacity="0.5"></stop>
      <stop offset="12.2225477%" stop-color="#F0F0F0" stop-opacity="0.5"></stop>
      <stop offset="100%" stop-color="#000000" stop-opacity="0.5"></stop>
    </linearGradient>
    <path
      d="M96.2985678,109 C127.073325,144.24719 148.510664,161.870785 160.610587,161.870785 C169.009903,161.870785 191.801106,156.652911 196.28985,139.513703 C198.641754,130.533515 196.397369,120.36228 189.556697,109 L272.794193,109 C266.14467,121.594058 263.476179,130.656708 264.788719,136.187949 C270.660582,160.932874 294.697984,161.843542 304.243575,161.870071 L304.809615,161.870785 L304.809615,161.870785 C315.013292,159.277961 335.930843,141.654366 367.562268,109 L446.513609,109 C451.525028,111.185155 454.820783,113.097907 456.400872,114.738255 C457.980961,116.378604 459.180671,119.132759 460,123.000719 L460,183.265349 C458.041307,188.611352 454.728914,191.920985 450.06282,193.19425 C445.396725,194.467515 436.580407,194.467515 423.613864,193.19425 L388.617968,358.454338 C387.676998,362.323745 386.512695,365.042506 385.12506,366.610621 C383.737426,368.178736 381.201151,369.641862 377.516236,371 L82.0120861,371 C79.0431167,369.327195 76.9731924,367.864068 75.8023131,366.610621 C74.6314338,365.357173 73.4097371,363.428814 72.1372229,360.825542 L36.1095164,193.19425 C24.769464,194.209789 16.5847959,194.209789 11.5555122,193.19425 C6.52622854,192.178712 2.67439113,189.74824 0,185.902834 L0,123.000719 C1.20339653,117.665165 2.74130035,114.147367 4.61371148,112.447324 C6.48612262,110.747281 10.0883052,109.598173 15.4202591,109 L96.2985678,109 Z M160.574548,193.900376 C153.208489,193.900376 147.231717,197.63238 142.644231,205.096387 L142.644231,205.096387 L142.644231,319.280088 C147.763877,326.809052 153.996686,330.573533 161.342659,330.573533 C168.688632,330.573533 174.921442,326.809052 180.041087,319.280088 L180.041087,319.280088 L180.041087,205.096387 C174.429454,197.63238 167.940607,193.900376 160.574548,193.900376 Z M231.343779,193.900376 C223.97772,193.900376 218.000948,197.63238 213.413462,205.096387 L213.413462,205.096387 L213.413462,319.280088 C218.533107,326.809052 224.765917,330.573533 232.11189,330.573533 C239.457863,330.573533 245.690672,326.809052 250.810318,319.280088 L250.810318,319.280088 L250.810318,205.096387 C245.198684,197.63238 238.709838,193.900376 231.343779,193.900376 Z M302.11301,193.900376 C294.746951,193.900376 288.770178,197.63238 284.182692,205.096387 L284.182692,205.096387 L284.182692,319.280088 C289.302338,326.809052 295.535148,330.573533 302.881121,330.573533 C310.227094,330.573533 316.459903,326.809052 321.579549,319.280088 L321.579549,319.280088 L321.579549,205.096387 C315.967915,197.63238 309.479069,193.900376 302.11301,193.900376 Z"
      id="path-10"></path>
  </defs>
  <g fill="none" fill-rule="evenodd" id="Artboard" stroke="none" stroke-width="1">
    <g id="Icon" transform="translate(95.000000, 96.000000)">
      <mask fill="white" id="mask-2">
        <use xlink:href="#path-1"></use>
      </mask>
      <use fill="#EC1F46" id="Mask" xlink:href="#path-1"></use>
      <mask fill="white" id="mask-4">
        <use xlink:href="#path-3"></use>
      </mask>
      <rect height="782.187317" rx="190" stroke="#FFFFFF" stroke-opacity="0.111116423" stroke-width="50" width="783"
            x="25" y="25"></rect>
    </g>
    <g id="Group" transform="translate(282.000000, 327.000000)">
      <g id="Rectangle">
        <use fill="#FFFFFF" xlink:href="#path-6"></use>
        <use fill="url(#linearGradient-5)" xlink:href="#path-6"></use>
      </g>
      <g id="Rectangle" transform="translate(359.000000, 74.500000) scale(-1, 1) translate(-359.000000, -74.500000) ">
        <use fill="#FFFFFF" xlink:href="#path-8"></use>
        <use fill="url(#linearGradient-7)" xlink:href="#path-8"></use>
      </g>
      <g id="Combined-Shape">
        <use fill="#FFFFFF" xlink:href="#path-10"></use>
        <use fill="url(#linearGradient-9)" stroke="#979797" stroke-width="1" xlink:href="#path-10"></use>
      </g>
    </g>
  </g>
</svg>
